<mxfile host="app.diagrams.net" modified="2024-03-11T03:15:56.816Z" agent="Mozilla/5.0 (Macintosh; Intel Mac OS X 10_15_7) AppleWebKit/537.36 (KHTML, like Gecko) Chrome/119.0.0.0 Safari/537.36" version="24.0.2" etag="_Ufem51wJNMvGttej3s5" type="github">
  <diagram name="第 1 页" id="tYlTEqthePhAT1uKK9Kl">
    <mxGraphModel>
      <root>
        <mxCell id="0" />
        <mxCell id="1" parent="0" />
      </root>
    </mxGraphModel>
  </diagram>
</mxfile>
